<?xml version="1.0" encoding="utf-8"?>
<!-- Generator: Adobe Illustrator 21.1.0, SVG Export Plug-In . SVG Version: 6.00 Build 0)  -->
<!DOCTYPE svg PUBLIC "-//W3C//DTD SVG 1.1//EN" "http://www.w3.org/Graphics/SVG/1.1/DTD/svg11.dtd" [
	<!ENTITY st0 "fill-rule:evenodd;clip-rule:evenodd;fill:#EDA8AC;">
]>
<svg version="1.1" id="Warstwa_1" xmlns="http://www.w3.org/2000/svg" xmlns:xlink="http://www.w3.org/1999/xlink" x="0px" y="0px"
	 viewBox="0 0 91.9 91.9" style="enable-background:new 0 0 91.9 91.9;" xml:space="preserve">
<path style="&st0;" d="M45.9,0c25.4,0,45.9,20.6,45.9,45.9S71.3,91.9,45.9,91.9S0,71.3,0,45.9S20.6,0,45.9,0L45.9,0z M40.8,69.9h8.8
	V48.5h6.8l1.1-8.5h-8V34c0-1.4,0.2-2.4,0.8-3c0.6-0.8,1.8-1.1,3.5-1.1h4.5v-7.6c-1.7-0.2-3.9-0.4-6.6-0.4c-3.3,0-6,1-8,3
	c-2,2-3,4.7-3,8.3v6.8h-7.2v8.5h7.2V69.9z"/>
</svg>
