<?xml version="1.0" encoding="utf-8"?>
<!-- Generator: Adobe Illustrator 21.1.0, SVG Export Plug-In . SVG Version: 6.00 Build 0)  -->
<!DOCTYPE svg PUBLIC "-//W3C//DTD SVG 1.1//EN" "http://www.w3.org/Graphics/SVG/1.1/DTD/svg11.dtd" [
	<!ENTITY st0 "fill-rule:evenodd;clip-rule:evenodd;fill:#EDA8AC;">
]>
<svg version="1.1" id="Warstwa_1" xmlns="http://www.w3.org/2000/svg" xmlns:xlink="http://www.w3.org/1999/xlink" x="0px" y="0px"
	 viewBox="0 0 91.9 91.9" style="enable-background:new 0 0 91.9 91.9;" xml:space="preserve">
<path style="&st0;" d="M45.9,0c25.4,0,45.9,20.6,45.9,45.9c0,25.4-20.6,45.9-45.9,45.9C20.6,91.9,0,71.3,0,45.9
	C0,20.6,20.6,0,45.9,0L45.9,0z M34.3,66.9v-28h-8.7v28H34.3L34.3,66.9z M30,35.1c1.4,0,2.6-0.5,3.6-1.5c1-1,1.5-2.2,1.5-3.6
	c0-1.4-0.5-2.6-1.5-3.6c-1-1-2.2-1.5-3.6-1.5c-1.4,0-2.6,0.5-3.6,1.5c-1,1-1.5,2.2-1.5,3.6c0,1.4,0.5,2.6,1.5,3.6
	C27.5,34.6,28.6,35.1,30,35.1L30,35.1z M66.9,66.9V51.6c0-4.3-0.6-7.5-1.9-9.6c-1.6-2.6-4.5-3.8-8.5-3.8c-2,0-3.8,0.5-5.2,1.5
	c-1.4,0.8-2.4,1.8-3,3.1h-0.1v-3.8h-8.3v28h8.6V53.1c0-2.2,0.3-3.8,0.9-5c0.8-1.5,2.2-2.3,4.2-2.3c2,0,3.3,0.8,4,2.5
	c0.4,1,0.6,2.6,0.6,4.9v13.7H66.9z"/>
</svg>
