<?xml version="1.0" encoding="utf-8"?>
<!-- Generator: Adobe Illustrator 21.1.0, SVG Export Plug-In . SVG Version: 6.00 Build 0)  -->
<!DOCTYPE svg PUBLIC "-//W3C//DTD SVG 1.1//EN" "http://www.w3.org/Graphics/SVG/1.1/DTD/svg11.dtd" [
	<!ENTITY st0 "fill-rule:evenodd;clip-rule:evenodd;fill:#EDA8AC;">
]>
<svg version="1.1" id="Warstwa_1" xmlns="http://www.w3.org/2000/svg" xmlns:xlink="http://www.w3.org/1999/xlink" x="0px" y="0px"
	 viewBox="0 0 91.9 91.9" style="enable-background:new 0 0 91.9 91.9;" xml:space="preserve">
<path style="&st0;" d="M45.9,0c25.4,0,45.9,20.6,45.9,45.9c0,25.4-20.6,45.9-45.9,45.9C20.6,91.9,0,71.3,0,45.9
	C0,20.6,20.6,0,45.9,0L45.9,0z M65,36.2c1.9-1.4,3.6-3.2,5-5.2c-1.9,0.8-3.8,1.3-5.6,1.6c2.1-1.3,3.6-3.1,4.3-5.4
	c-1.9,1.1-4,1.9-6.3,2.3c-0.9-0.9-2-1.7-3.2-2.2c-1.2-0.6-2.5-0.8-4-0.8c-1.7,0-3.4,0.4-4.9,1.3c-1.5,0.9-2.7,2.1-3.6,3.6
	c-0.9,1.5-1.3,3.2-1.3,4.9c0,0.8,0.1,1.5,0.2,2.2c-4-0.2-7.8-1.2-11.3-3c-3.5-1.8-6.5-4.2-9-7.3c-0.9,1.6-1.4,3.2-1.4,4.9
	c0,1.7,0.4,3.3,1.2,4.7c0.8,1.4,1.9,2.6,3.2,3.6c-1.6-0.1-3-0.5-4.4-1.3v0.2c0,2.3,0.8,4.4,2.2,6.2c1.5,1.8,3.4,3,5.6,3.5
	c-0.9,0.2-1.7,0.3-2.6,0.3c-0.6,0-1.2,0-1.8-0.1c0.6,1.9,1.8,3.6,3.4,4.8c1.7,1.3,3.6,1.9,5.8,1.9c-3.6,2.8-7.7,4.2-12.3,4.2
	c-0.9,0-1.7,0-2.3-0.1c4.6,2.9,9.6,4.4,15.1,4.4c5.7,0,10.8-1.5,15.3-4.4c4.1-2.6,7.2-6.2,9.5-10.6c2.2-4.2,3.3-8.5,3.3-13
	C65.1,36.9,65,36.5,65,36.2z"/>
</svg>
