<?xml version="1.0" encoding="utf-8"?>
<!-- Generator: Adobe Illustrator 21.1.0, SVG Export Plug-In . SVG Version: 6.00 Build 0)  -->
<!DOCTYPE svg PUBLIC "-//W3C//DTD SVG 1.1//EN" "http://www.w3.org/Graphics/SVG/1.1/DTD/svg11.dtd" [
	<!ENTITY st0 "fill-rule:evenodd;clip-rule:evenodd;fill:#EDA8AC;">
]>
<svg version="1.1" id="Warstwa_1" xmlns="http://www.w3.org/2000/svg" xmlns:xlink="http://www.w3.org/1999/xlink" x="0px" y="0px"
	 viewBox="0 0 91.9 91.9" style="enable-background:new 0 0 91.9 91.9;" xml:space="preserve">
<path style="&st0;" d="M45.9,0c25.4,0,45.9,20.6,45.9,45.9c0,25.4-20.6,45.9-45.9,45.9S0,71.3,0,45.9C0,20.6,20.6,0,45.9,0L45.9,0z
	 M70.5,33.6c-0.3-1.1-0.9-2.1-1.7-2.9C68,29.9,67,29.3,65.9,29c-1.6-0.4-5.4-0.8-11.4-0.9l-8.5-0.1L37.4,28c-6,0.2-9.8,0.5-11.4,0.9
	c-1.1,0.3-2.1,0.9-2.9,1.7c-0.8,0.8-1.4,1.8-1.7,2.9c-0.4,1.7-0.8,4.2-0.9,7.7c-0.1,1.8-0.1,3.3-0.1,4.7l0.1,4.7
	c0.2,3.5,0.5,6.1,0.9,7.8c0.3,1.1,0.9,2,1.7,2.8c0.8,0.8,1.8,1.4,2.9,1.7c1.6,0.4,5.4,0.8,11.4,0.9l8.5,0.1l8.5-0.1
	c6-0.2,9.8-0.5,11.4-0.9c1.1-0.3,2.1-0.9,2.9-1.7c0.8-0.8,1.4-1.8,1.7-2.8c0.4-1.7,0.8-4.3,0.9-7.8l0.1-4.7l-0.1-4.7
	C71.3,37.8,70.9,35.3,70.5,33.6L70.5,33.6z M40.7,53.6l13.4-7.7l-13.4-7.6V53.6z"/>
</svg>
